# xmcd
#
# Track frame offsets: 
#        150
#        15497
#        33921
#        51731
#        72450
#        95342
#
# Disc length: 1494 seconds
#
# Revision: 0
# Processed by: cddbd v1.5.2PL0 Copyright (c) Steve Scherf et al.
# Submitted via: ExactAudioCopyFreeDBPlugin 1.0
#
DISCID=4c05d406
DTITLE=Rachel Potter - Live the Dream
DYEAR=2012
DGENRE=Country
TTITLE0=Live the Dream
TTITLE1=Lovestruck
TTITLE2=Just a Show
TTITLE3=Never You Mind
TTITLE4=September Song
TTITLE5=Hold on to Me
EXTD=
EXTT0=
EXTT1=
EXTT2=
EXTT3=
EXTT4=
EXTT5=
PLAYORDER=
